<svg width="16" height="16" viewBox="0 0 16 16" fill="none" xmlns="http://www.w3.org/2000/svg">
<path d="M3.33332 7.99992H3.33999M7.99999 7.99992H8.00666M12.6667 7.99992H12.6733M3.99999 7.99992C3.99999 8.36811 3.70151 8.66659 3.33332 8.66659C2.96513 8.66659 2.66666 8.36811 2.66666 7.99992C2.66666 7.63173 2.96513 7.33325 3.33332 7.33325C3.70151 7.33325 3.99999 7.63173 3.99999 7.99992ZM8.66666 7.99992C8.66666 8.36811 8.36818 8.66659 7.99999 8.66659C7.6318 8.66659 7.33332 8.36811 7.33332 7.99992C7.33332 7.63173 7.6318 7.33325 7.99999 7.33325C8.36818 7.33325 8.66666 7.63173 8.66666 7.99992ZM13.3333 7.99992C13.3333 8.36811 13.0348 8.66659 12.6667 8.66659C12.2985 8.66659 12 8.36811 12 7.99992C12 7.63173 12.2985 7.33325 12.6667 7.33325C13.0348 7.33325 13.3333 7.63173 13.3333 7.99992Z" stroke="white" stroke-width="2" stroke-linecap="round" stroke-linejoin="round"/>
</svg>
